<svg width="16" height="16" viewBox="0 0 16 16" fill="none" xmlns="http://www.w3.org/2000/svg">
<g id=" clock">
<path id="Icon" fill-rule="evenodd" clip-rule="evenodd" d="M10.6666 8.66683H7.99998C7.63198 8.66683 7.33331 8.36883 7.33331 8.00016V5.3335C7.33331 4.96483 7.63198 4.66683 7.99998 4.66683C8.36798 4.66683 8.66665 4.96483 8.66665 5.3335V7.3335H10.6666C11.0353 7.3335 11.3333 7.6315 11.3333 8.00016C11.3333 8.36883 11.0353 8.66683 10.6666 8.66683ZM7.99998 1.3335C4.32398 1.3335 1.33331 4.32416 1.33331 8.00016C1.33331 11.6762 4.32398 14.6668 7.99998 14.6668C11.676 14.6668 14.6666 11.6762 14.6666 8.00016C14.6666 4.32416 11.676 1.3335 7.99998 1.3335Z" fill="#B8BCBF"/>
</g>
</svg>
