<svg width="24" height="24" viewBox="0 0 24 24" fill="none" xmlns="http://www.w3.org/2000/svg">
<path fill-rule="evenodd" clip-rule="evenodd" d="M7.15788 11.5522L10.6063 7.2666C10.8542 6.95946 11.3034 6.91018 11.6106 7.15803C11.9184 7.40517 11.967 7.85516 11.7198 8.1623L8.63711 11.9922L11.8341 15.8286C12.087 16.1314 12.0463 16.5822 11.7427 16.8343C11.6091 16.9457 11.447 17 11.2863 17C11.0813 17 10.8784 16.9121 10.737 16.7429L7.16574 12.4572C6.94789 12.1958 6.94432 11.8172 7.15788 11.5522Z" fill="#231F20"/>
<path fill-rule="evenodd" clip-rule="evenodd" d="M15.6062 7.26631C15.8541 6.95916 16.3034 6.91059 16.6105 7.15774C16.9177 7.40488 16.967 7.85489 16.7198 8.16203L13.6376 11.9921L16.8341 15.8286C17.087 16.1314 17.0463 16.5821 16.7427 16.8343C16.6091 16.9457 16.447 17 16.2863 17C16.0812 17 15.8784 16.9121 15.737 16.7429L12.1655 12.4571C11.9476 12.1957 11.9448 11.8171 12.1576 11.5521L15.6062 7.26631Z" fill="#231F20"/>
</svg>
