<svg width="20" height="20" viewBox="0 0 20 20" fill="none" xmlns="http://www.w3.org/2000/svg">
<g id=" eye">
<path id="Icon" fill-rule="evenodd" clip-rule="evenodd" d="M9.99996 8.75021C9.31079 8.75021 8.74996 9.31105 8.74996 10.0002C8.74996 10.6894 9.31079 11.2502 9.99996 11.2502C10.6891 11.2502 11.25 10.6894 11.25 10.0002C11.25 9.31105 10.6891 8.75021 9.99996 8.75021ZM9.99996 12.9169C8.39163 12.9169 7.08329 11.6085 7.08329 10.0002C7.08329 8.39188 8.39163 7.08355 9.99996 7.08355C11.6083 7.08355 12.9166 8.39188 12.9166 10.0002C12.9166 11.6085 11.6083 12.9169 9.99996 12.9169ZM18.2233 9.58519C17.6908 8.65853 14.755 4.01352 9.77413 4.16936C5.16829 4.28686 2.48829 8.34519 1.77663 9.58519C1.62996 9.84269 1.62996 10.1577 1.77663 10.4152C2.30163 11.3294 5.13496 15.8335 10.0208 15.8335C10.0883 15.8335 10.1566 15.8327 10.2258 15.831C14.8316 15.7135 17.5116 11.6552 18.2233 10.4152C18.37 10.1577 18.37 9.84269 18.2233 9.58519Z" fill="#71787E"/>
</g>
</svg>
