<svg width="25" height="16" viewBox="0 0 25 16" fill="none" xmlns="http://www.w3.org/2000/svg">
<rect width="25" height="16" rx="2" fill="#3A8CFF"/>
<path d="M12.5 14C15.5376 14 18 11.5376 18 8.5C18 5.46243 15.5376 3 12.5 3C9.46243 3 7 5.46243 7 8.5C7 11.5376 9.46243 14 12.5 14Z" fill="white"/>
<path d="M18 8.50005C18 7.39655 17.6751 6.36899 17.1156 5.50781C17.1156 5.50781 16.8019 5.96616 16.8608 6.26078C16.9197 6.55543 17.2659 6.57793 17.2303 6.79406C17.1948 7.01019 16.9394 6.73221 16.6251 7.3018C16.3108 7.87144 16.468 8.65738 16.9197 8.7162C17.3715 8.77498 18 8.50005 18 8.50005Z" fill="#3A8CFF"/>
<path d="M13.9442 3.19165C14.5844 3.36542 15.1782 3.65193 15.7029 4.02849C15.7029 4.02849 15.0651 3.9233 14.8236 4.1393C14.582 4.35537 14.2297 4.86616 13.9442 4.1393C13.6588 3.41249 13.9442 3.19165 13.9442 3.19165Z" fill="#3A8CFF"/>
<path d="M8.3645 4.87385C9.37251 3.72518 10.8514 3 12.4998 3C12.4998 3 12.1267 3.22593 12.8338 3.60895C13.541 3.99202 13.2169 4.16877 13.0695 4.28663C12.9222 4.4045 12.6667 4.05093 12.4998 3.81525C12.3329 3.5795 11.6161 3.21615 11.0661 3.41263C10.5161 3.6091 10.0448 3.75423 10.1233 3.93702C10.2017 4.11977 11.1446 3.76633 11.4982 3.78588C11.8517 3.80547 11.7339 4.0215 11.4 4.27688C11.0661 4.53227 11.0267 4.84652 11.3803 5.04293C11.7339 5.23942 12.1659 5.25908 12.2643 5.14124C12.3625 5.02338 12.0875 4.25731 12.7553 4.5912C13.4232 4.92509 13.9733 5.12167 13.4232 5.61267C12.8732 6.10363 12.2447 6.65383 12.225 6.96799C12.2053 7.2822 12.4215 7.53776 12.3036 7.55731C12.1858 7.57686 12.0776 7.42967 11.9991 7.32156C11.9206 7.21352 11.5571 7.17428 11.3803 7.24297C11.2035 7.31166 10.8696 7.57686 11.0562 7.83224C11.2429 8.08767 11.498 7.96966 11.7535 8.08754C12.0089 8.20541 12.247 8.65398 12.1981 8.75536C12.1492 8.8567 11.9315 8.72838 11.7535 8.3822C11.5754 8.03598 11.2414 8.26434 11.0064 8.20541C10.7714 8.1465 10.5946 8.10722 10.3589 7.6947C10.1231 7.28222 9.63511 7.16679 9.43569 6.92865C8.86444 6.24653 8.90531 5.73045 8.78746 5.49474C8.6696 5.25897 8.3645 4.87385 8.3645 4.87385Z" fill="#3A8CFF"/>
<path d="M13.0303 8.57843C13.0303 8.57843 13.6196 8.63725 13.9142 8.89268C14.2088 9.14806 14.2482 9.24633 14.7 9.34452C15.1517 9.44266 15.3482 9.69795 15.0535 10.1891C14.7589 10.6802 14.2284 11.4659 13.9731 11.7016C13.7179 11.9374 13.4035 12.1338 13.2857 12.5266C13.1678 12.9194 13.1285 13.155 13.3839 13.3123C13.3839 13.3123 13.2464 13.6462 12.9321 13.2141C12.6178 12.7819 12.8732 12.2712 12.9321 11.9766C12.991 11.682 13.1482 10.7981 13.05 10.582C12.9518 10.3658 12.4999 10.2283 12.3821 9.77659C12.2642 9.32486 12.4705 8.44576 13.0303 8.57843Z" fill="#3A8CFF"/>
</svg>
