<svg width="18" height="20" viewBox="0 0 18 20" fill="none" xmlns="http://www.w3.org/2000/svg">
<path fill-rule="evenodd" clip-rule="evenodd" d="M9.71476 0.300469L17.4238 8.18447C17.7898 8.56047 17.9998 9.08447 17.9998 9.62347V17.9995C17.9998 19.1025 17.1528 19.9995 16.1118 19.9995H12.9998V10.9995C12.9998 10.4475 12.5528 9.99947 11.9998 9.99947H5.99976C5.44676 9.99947 4.99976 10.4475 4.99976 10.9995V19.9995H1.88876C0.847756 19.9995 -0.000244141 19.1025 -0.000244141 17.9995V9.62347C-0.000244141 9.08447 0.209756 8.56047 0.574756 8.18547L8.28476 0.300469C8.66176 -0.0845312 9.33776 -0.0845312 9.71476 0.300469ZM11 18.9999H6.99996V11.9999H11V18.9999Z" fill="white"/>
</svg>
