<svg width="18" height="20" viewBox="0 0 18 20" fill="none" xmlns="http://www.w3.org/2000/svg">
<path fill-rule="evenodd" clip-rule="evenodd" d="M9.71479 0.300713L17.4238 8.18471C17.7898 8.56071 17.9998 9.08471 17.9998 9.62371V17.9997C17.9998 19.1027 17.1528 19.9997 16.1118 19.9997H12.9998V10.9997C12.9998 10.4477 12.5528 9.99971 11.9998 9.99971H5.99979C5.44679 9.99971 4.99979 10.4477 4.99979 10.9997V19.9997H1.88879C0.847786 19.9997 -0.000213623 19.1027 -0.000213623 17.9997V9.62371C-0.000213623 9.08471 0.209786 8.56071 0.574786 8.18571L8.28479 0.300713C8.66179 -0.0842871 9.33779 -0.0842871 9.71479 0.300713ZM11 19.0001H6.99999V12.0001H11V19.0001Z" fill="white"/>
</svg>
