<svg width="18" height="12" viewBox="0 0 18 12" fill="none" xmlns="http://www.w3.org/2000/svg">
<path fill-rule="evenodd" clip-rule="evenodd" d="M17.992 0.963C17.99 0.891 17.969 0.823 17.95 0.754C17.935 0.696 17.928 0.637 17.903 0.584C17.88 0.532 17.841 0.49 17.807 0.442C17.765 0.381 17.727 0.32 17.673 0.27C17.664 0.261 17.66 0.249 17.65 0.241C17.614 0.21 17.57 0.199 17.531 0.174C17.471 0.135 17.412 0.095 17.344 0.069C17.277 0.045 17.211 0.039 17.142 0.029C17.094 0.022 17.051 0 17 0H12C11.447 0 11 0.448 11 1C11 1.552 11.447 2 12 2H14.826L10.79 6.708L6.51401 4.143C6.09101 3.887 5.54701 3.981 5.23101 4.36L0.231007 10.36C-0.121993 10.784 -0.0649928 11.415 0.359007 11.768C0.547007 11.924 0.773007 12 0.999007 12C1.28601 12 1.57001 11.878 1.76801 11.64L6.22001 6.298L10.485 8.858C10.904 9.109 11.442 9.021 11.759 8.651L16 3.703V6C16 6.552 16.447 7 17 7C17.553 7 18 6.552 18 6V1C18 0.987 17.993 0.976 17.992 0.963Z" fill="#71787E"/>
</svg>
