<svg width="16" height="16" viewBox="0 0 16 16" fill="none" xmlns="http://www.w3.org/2000/svg">
<path fill-rule="evenodd" clip-rule="evenodd" d="M3.33325 1.3335C2.23059 1.3335 1.33325 2.23083 1.33325 3.3335C1.33325 4.43616 2.23059 5.3335 3.33325 5.3335C4.43592 5.3335 5.33325 4.43616 5.33325 3.3335C5.33325 2.23083 4.43592 1.3335 3.33325 1.3335ZM7.99992 1.3335C6.89725 1.3335 5.99992 2.23083 5.99992 3.3335C5.99992 4.43616 6.89725 5.3335 7.99992 5.3335C9.10259 5.3335 9.99992 4.43616 9.99992 3.3335C9.99992 2.23083 9.10259 1.3335 7.99992 1.3335ZM14.6666 3.3335C14.6666 4.43616 13.7693 5.3335 12.6666 5.3335C11.5639 5.3335 10.6666 4.43616 10.6666 3.3335C10.6666 2.23083 11.5639 1.3335 12.6666 1.3335C13.7693 1.3335 14.6666 2.23083 14.6666 3.3335ZM3.33325 6.00016C2.23059 6.00016 1.33325 6.8975 1.33325 8.00016C1.33325 9.10283 2.23059 10.0002 3.33325 10.0002C4.43592 10.0002 5.33325 9.10283 5.33325 8.00016C5.33325 6.8975 4.43592 6.00016 3.33325 6.00016ZM5.99992 8.00016C5.99992 6.8975 6.89725 6.00016 7.99992 6.00016C9.10259 6.00016 9.99992 6.8975 9.99992 8.00016C9.99992 9.10283 9.10259 10.0002 7.99992 10.0002C6.89725 10.0002 5.99992 9.10283 5.99992 8.00016ZM12.6666 6.00016C11.5639 6.00016 10.6666 6.8975 10.6666 8.00016C10.6666 9.10283 11.5639 10.0002 12.6666 10.0002C13.7693 10.0002 14.6666 9.10283 14.6666 8.00016C14.6666 6.8975 13.7693 6.00016 12.6666 6.00016ZM1.33325 12.6668C1.33325 11.5642 2.23059 10.6668 3.33325 10.6668C4.43592 10.6668 5.33325 11.5642 5.33325 12.6668C5.33325 13.7695 4.43592 14.6668 3.33325 14.6668C2.23059 14.6668 1.33325 13.7695 1.33325 12.6668ZM7.99992 10.6668C6.89725 10.6668 5.99992 11.5642 5.99992 12.6668C5.99992 13.7695 6.89725 14.6668 7.99992 14.6668C9.10259 14.6668 9.99992 13.7695 9.99992 12.6668C9.99992 11.5642 9.10259 10.6668 7.99992 10.6668ZM10.6666 12.6668C10.6666 11.5642 11.5639 10.6668 12.6666 10.6668C13.7693 10.6668 14.6666 11.5642 14.6666 12.6668C14.6666 13.7695 13.7693 14.6668 12.6666 14.6668C11.5639 14.6668 10.6666 13.7695 10.6666 12.6668Z" fill="white"/>
</svg>
