<svg width="235" height="36" viewBox="0 0 235 36" fill="none" xmlns="http://www.w3.org/2000/svg">
<path d="M4.71614e-05 28C2.11149e-05 13.6406 11.6406 2 26 2H127C129.209 2 131 3.79086 131 5.99999V8.99994C131 23.3594 119.359 35 105 35H4.00005C1.79091 35 5.66101e-05 33.2091 5.2603e-05 31L4.71614e-05 28Z" fill="#54981F"/>
<path d="M63.7276 21.5407C65.8837 19.336 66.9297 17.6562 66.9297 15.9554C66.9297 14.5906 66.4387 13.4567 65.4354 12.5538C64.4535 11.6509 63.2153 11.189 61.6997 11.189C59.629 11.189 57.7291 12.0079 56 13.6667L57.8999 16.1654C59.1594 15.0315 60.3121 14.4646 61.3581 14.4646C62.4682 14.4646 63.3007 15.1575 63.3007 16.2283C63.3007 16.5853 63.194 16.9633 62.9805 17.3412C62.7884 17.7192 62.276 18.3281 61.4649 19.147L56.6191 24.1024V27H67.0578V23.8084H61.5289L63.7276 21.5407Z" fill="white"/>
<path d="M78.7572 20.6168V11.4619H76.1315L67.9982 21.2257L68.6813 23.4724H75.4911V26.979H78.7572V23.4724H80.4436V20.6168H78.7572ZM75.4911 16.1864V20.6168H71.8621L75.4911 16.1864Z" fill="white"/>
<path d="M85.8668 26.979V20.8898C85.8668 19.273 86.8701 18.1811 88.3857 18.1811C89.7733 18.1811 90.6485 19.126 90.6485 20.8058V26.979H94V19.9449C94 18.4121 93.5517 17.2152 92.6765 16.3963C91.8012 15.5774 90.7339 15.1575 89.4744 15.1575C87.7666 15.1575 86.4004 15.9764 85.7814 17.0052V11H82.5153V26.979H85.8668Z" fill="white"/>
<path d="M19.6385 27H23.2502L25.1317 14.4425H29.6301L30.1275 11H17.519L17 14.4425H21.52L19.6385 27Z" fill="white"/>
<path d="M29.7453 27H33.3354L35.7144 11H32.1243L29.7453 27Z" fill="white"/>
<path d="M48.0907 20.3532L41.5161 11H39.0939L36.7149 27H40.2401L41.6243 17.7334L48.0691 27H50.621L53 11H49.4964L48.0907 20.3532Z" fill="white"/>
<path d="M114.583 6.43551L109.594 16.1517L115.462 17.724L101.792 29.5328L107.016 19.9792L101.006 18.369L114.583 6.43551Z" fill="#FFF61C"/>
<path d="M144.789 7.33594V9.46875H143.445V11.2578H144.789V15.6719C144.789 17.3516 145.617 18.0312 147.711 18.0312C148.148 18.0312 148.57 17.9844 148.852 17.9297V16.1953C148.633 16.2188 148.477 16.2266 148.18 16.2266C147.406 16.2266 147.062 15.8828 147.062 15.1328V11.2578H148.852V9.46875H147.062V7.33594H144.789ZM150.766 18H153.039V9.38281H150.766V18ZM151.906 8.17969C152.719 8.17969 153.25 7.70312 153.25 7.03125C153.25 6.35156 152.719 5.88281 151.906 5.88281C151.086 5.88281 150.562 6.35156 150.562 7.03125C150.562 7.70312 151.086 8.17969 151.906 8.17969ZM155.344 18H157.617V13.0312C157.617 11.8984 158.266 11.1562 159.32 11.1562C160.398 11.1562 160.906 11.7812 160.906 12.9688V18H163.18V12.4297C163.18 10.3672 162.148 9.19531 160.234 9.19531C158.961 9.19531 158.086 9.79688 157.688 10.7656H157.547V9.38281H155.344V18ZM165.258 10.1016V10.1406H167.445V10.0938C167.445 9.05469 168.195 8.33594 169.289 8.33594C170.32 8.33594 171.055 8.97656 171.055 9.88281C171.055 10.6172 170.656 11.2031 169.07 12.75L165.391 16.3516V18H173.523V16.0391H168.586V15.8984L170.742 13.8438C172.695 12.0078 173.359 10.9531 173.359 9.72656C173.359 7.78906 171.719 6.4375 169.367 6.4375C166.93 6.4375 165.258 7.92188 165.258 10.1016ZM180.828 18H183.078V16.0312H184.555V14.0703H183.078V6.72656H179.773C177.797 9.70312 176.328 12.0312 175.312 13.9453V16.0312H180.828V18ZM177.43 14.0156C178.719 11.6797 179.727 10.1016 180.758 8.5625H180.883V14.1406H177.43V14.0156ZM186.656 18H188.93V13.0547C188.93 11.9375 189.586 11.1797 190.727 11.1797C191.758 11.1797 192.312 11.7969 192.312 12.9922V18H194.586V12.4531C194.586 10.3828 193.484 9.21875 191.633 9.21875C190.367 9.21875 189.43 9.8125 189.031 10.7969H188.891V6.09375H186.656V18ZM198.438 18.2109C199.281 18.2109 199.82 17.6406 199.82 16.8516C199.82 16.0625 199.281 15.5 198.438 15.5C197.602 15.5 197.055 16.0625 197.055 16.8516C197.055 17.6406 197.602 18.2109 198.438 18.2109ZM209.055 9.38281H206.656L204.891 15.8047H204.75L202.969 9.38281H200.523L203.516 18H206.078L209.055 9.38281ZM210.594 18H212.867V13.0312C212.867 11.8984 213.516 11.1562 214.57 11.1562C215.648 11.1562 216.156 11.7812 216.156 12.9688V18H218.43V12.4297C218.43 10.3672 217.398 9.19531 215.484 9.19531C214.211 9.19531 213.336 9.79688 212.938 10.7656H212.797V9.38281H210.594V18Z" fill="#54981F"/>
<path d="M149.205 28.4907V27.6997H146.604V28.5259H148.238V28.6621C148.229 29.6025 147.518 30.2354 146.48 30.2354C145.29 30.2354 144.542 29.3125 144.542 27.8184C144.542 26.3506 145.285 25.4233 146.458 25.4233C147.324 25.4233 147.926 25.8408 148.172 26.6055H149.161C148.946 25.3223 147.9 24.5049 146.458 24.5049C144.683 24.5049 143.536 25.8057 143.536 27.8271C143.536 29.875 144.67 31.1538 146.467 31.1538C148.128 31.1538 149.205 30.1123 149.205 28.4907ZM150.471 31H151.411V26.2144H150.471V31ZM150.941 25.375C151.292 25.375 151.552 25.1245 151.552 24.7993C151.552 24.4697 151.292 24.2192 150.941 24.2192C150.589 24.2192 150.33 24.4697 150.33 24.7993C150.33 25.1245 150.589 25.375 150.941 25.375ZM154.364 30.2837C153.85 30.2837 153.477 30.0332 153.477 29.6025C153.477 29.1807 153.775 28.9565 154.435 28.9126L155.604 28.8379V29.2378C155.604 29.8311 155.076 30.2837 154.364 30.2837ZM154.123 31.0791C154.751 31.0791 155.274 30.8066 155.56 30.3276H155.634V31H156.544V27.7305C156.544 26.7197 155.867 26.1221 154.667 26.1221C153.582 26.1221 152.809 26.6494 152.712 27.4712H153.626C153.731 27.1328 154.096 26.9395 154.624 26.9395C155.27 26.9395 155.604 27.2251 155.604 27.7305V28.1436L154.307 28.2183C153.169 28.2886 152.527 28.7852 152.527 29.6465C152.527 30.521 153.2 31.0791 154.123 31.0791ZM153.986 24.5005C154.101 24.4434 154.285 24.4082 154.479 24.4082C154.747 24.4082 154.936 24.5488 154.936 24.7422C154.936 24.9312 154.733 25.1201 154.448 25.2124L154.808 25.6782C155.309 25.498 155.647 25.1025 155.647 24.6587C155.647 24.1313 155.239 23.7974 154.61 23.7974C154.373 23.7974 154.131 23.8413 153.986 23.8984V24.5005ZM157.906 31H158.847V26.2144H157.906V31ZM158.376 25.375C158.728 25.375 158.987 25.1245 158.987 24.7993C158.987 24.4697 158.728 24.2192 158.376 24.2192C158.025 24.2192 157.766 24.4697 157.766 24.7993C157.766 25.1245 158.025 25.375 158.376 25.375ZM163.03 25.0234V26.2363H162.27V27.0317H163.03V29.7344C163.03 30.6572 163.448 31.0264 164.498 31.0264C164.683 31.0264 164.858 31.0044 165.012 30.978V30.1914C164.88 30.2046 164.797 30.2134 164.652 30.2134C164.182 30.2134 163.975 29.9937 163.975 29.4927V27.0317H165.012V26.2363H163.975V25.0234H163.03ZM166.124 31H167.069V28.1743C167.069 27.502 167.574 27.0493 168.291 27.0493C168.458 27.0493 168.739 27.0801 168.818 27.1064V26.1748C168.717 26.1484 168.537 26.1353 168.396 26.1353C167.772 26.1353 167.24 26.478 167.104 26.9482H167.034V26.2144H166.124V31ZM169.745 31H170.686V26.2144H169.745V31ZM170.624 25.4146L171.859 23.9028H170.751L169.648 25.4146H170.624ZM174.869 25.0234V26.2363H174.109V27.0317H174.869V29.7344C174.869 30.6572 175.287 31.0264 176.337 31.0264C176.521 31.0264 176.697 31.0044 176.851 30.978V30.1914C176.719 30.2046 176.636 30.2134 176.491 30.2134C176.021 30.2134 175.814 29.9937 175.814 29.4927V27.0317H176.851V26.2363H175.814V25.0234H174.869ZM179.875 26.9263C180.573 26.9263 181.03 27.4141 181.052 28.1655H178.635C178.688 27.4185 179.176 26.9263 179.875 26.9263ZM181.048 29.708C180.872 30.0815 180.481 30.2881 179.91 30.2881C179.154 30.2881 178.666 29.7563 178.635 28.917V28.8643H182.015V28.5347C182.015 27.0317 181.21 26.1221 179.879 26.1221C178.53 26.1221 177.673 27.0933 177.673 28.6226C177.673 30.1519 178.512 31.0923 179.883 31.0923C180.978 31.0923 181.742 30.5649 181.958 29.708H181.048ZM185.113 26.9263C185.812 26.9263 186.269 27.4141 186.291 28.1655H183.874C183.926 27.4185 184.414 26.9263 185.113 26.9263ZM186.286 29.708C186.11 30.0815 185.719 30.2881 185.148 30.2881C184.392 30.2881 183.904 29.7563 183.874 28.917V28.8643H187.253V28.5347C187.253 27.0317 186.449 26.1221 185.117 26.1221C183.768 26.1221 182.911 27.0933 182.911 28.6226C182.911 30.1519 183.75 31.0923 185.122 31.0923C186.216 31.0923 186.98 30.5649 187.196 29.708H186.286ZM188.387 31H189.332V28.2007C189.332 27.4536 189.775 26.9878 190.474 26.9878C191.173 26.9878 191.507 27.3701 191.507 28.1392V31H192.452V27.9019C192.452 26.7637 191.863 26.1221 190.795 26.1221C190.074 26.1221 189.6 26.4429 189.367 26.9746H189.296V26.2144H188.387V31ZM196.288 31H197.233V28.2051C197.233 27.48 197.664 26.9922 198.437 26.9922C199.105 26.9922 199.461 27.3789 199.461 28.1436V31H200.406V27.9106C200.406 26.7725 199.777 26.1265 198.758 26.1265C198.037 26.1265 197.532 26.4473 197.299 26.9834H197.224V24.3467H196.288V31ZM203.759 31.0923C205.156 31.0923 206.013 30.1562 206.013 28.605C206.013 27.0625 205.152 26.1221 203.759 26.1221C202.361 26.1221 201.5 27.0625 201.5 28.605C201.5 30.1562 202.357 31.0923 203.759 31.0923ZM203.759 30.2529C202.937 30.2529 202.476 29.6509 202.476 28.605C202.476 27.5679 202.937 26.9614 203.759 26.9614C204.576 26.9614 205.042 27.5679 205.042 28.605C205.042 29.6465 204.576 30.2529 203.759 30.2529ZM207.485 25.0234V26.2363H206.725V27.0317H207.485V29.7344C207.485 30.6572 207.903 31.0264 208.953 31.0264C209.138 31.0264 209.313 31.0044 209.467 30.978V30.1914C209.335 30.2046 209.252 30.2134 209.107 30.2134C208.637 30.2134 208.43 29.9937 208.43 29.4927V27.0317H209.467V26.2363H208.43V25.0234H207.485ZM213.04 31H213.985V28.2007C213.985 27.4536 214.429 26.9878 215.127 26.9878C215.826 26.9878 216.16 27.3701 216.16 28.1392V31H217.105V27.9019C217.105 26.7637 216.516 26.1221 215.448 26.1221C214.728 26.1221 214.253 26.4429 214.02 26.9746H213.95V26.2144H213.04V31ZM218.48 31H219.425V28.2051C219.425 27.48 219.856 26.9922 220.629 26.9922C221.297 26.9922 221.653 27.3789 221.653 28.1436V31H222.598V27.9106C222.598 26.7725 221.97 26.1265 220.95 26.1265C220.229 26.1265 219.724 26.4473 219.491 26.9834H219.417V24.3467H218.48V31ZM225.494 30.2837C224.98 30.2837 224.606 30.0332 224.606 29.6025C224.606 29.1807 224.905 28.9565 225.564 28.9126L226.733 28.8379V29.2378C226.733 29.8311 226.206 30.2837 225.494 30.2837ZM225.252 31.0791C225.881 31.0791 226.404 30.8066 226.689 30.3276H226.764V31H227.674V27.7305C227.674 26.7197 226.997 26.1221 225.797 26.1221C224.712 26.1221 223.938 26.6494 223.842 27.4712H224.756C224.861 27.1328 225.226 26.9395 225.753 26.9395C226.399 26.9395 226.733 27.2251 226.733 27.7305V28.1436L225.437 28.2183C224.299 28.2886 223.657 28.7852 223.657 29.6465C223.657 30.521 224.33 31.0791 225.252 31.0791ZM226.298 24.0786H225.296L224.075 25.5332H225.037L225.762 24.6367H225.833L226.558 25.5332H227.52L226.298 24.0786ZM226.689 23.9863H227.533L228.513 22.6064H227.529L226.689 23.9863ZM229.353 25.0234V26.2363H228.592V27.0317H229.353V29.7344C229.353 30.6572 229.77 31.0264 230.82 31.0264C231.005 31.0264 231.181 31.0044 231.334 30.978V30.1914C231.203 30.2046 231.119 30.2134 230.974 30.2134C230.504 30.2134 230.297 29.9937 230.297 29.4927V27.0317H231.334V26.2363H230.297V25.0234H229.353ZM232.697 24.6543L232.789 28.8994H233.677L233.765 24.6543H232.697ZM233.237 31.1011C233.642 31.1011 233.91 30.833 233.91 30.4331C233.91 30.0244 233.642 29.7563 233.237 29.7563C232.829 29.7563 232.556 30.0244 232.556 30.4331C232.556 30.833 232.829 31.1011 233.237 31.1011Z" fill="#2B5609"/>
</svg>
