<svg width="16" height="20" viewBox="0 0 16 20" fill="none" xmlns="http://www.w3.org/2000/svg">
<path fill-rule="evenodd" clip-rule="evenodd" d="M8 6C7.173 6 6.5 6.673 6.5 7.5C6.5 8.327 7.173 9 8 9C8.827 9 9.5 8.327 9.5 7.5C9.5 6.673 8.827 6 8 6ZM8 11C6.07 11 4.5 9.43 4.5 7.5C4.5 5.57 6.07 4 8 4C9.93 4 11.5 5.57 11.5 7.5C11.5 9.43 9.93 11 8 11ZM8 0C3.589 0 0 3.554 0 7.923C0 13.397 7.049 19.502 7.349 19.759C7.537 19.92 7.768 20 8 20C8.232 20 8.463 19.92 8.651 19.759C8.951 19.502 16 13.397 16 7.923C16 3.554 12.411 0 8 0Z" fill="#71787E"/>
</svg>
